<svg width="336" height="250" viewBox="0 0 336 250" fill="none" xmlns="http://www.w3.org/2000/svg">
<path d="M24.8684 34.9079H17.1974V27.9868H54.3421C64.6827 27.9868 72.398 29.3881 77.5718 32.1111L77.5787 32.1147L77.5857 32.1182C83.0486 34.8495 86.9937 38.9334 89.4477 44.3867L89.6467 44.8289H90.1316H92.2369H92.5475L92.7672 44.6093C98.5813 38.7952 106.074 33.9324 115.267 30.0325L115.267 30.0326L115.276 30.0283C124.713 25.865 135.275 23.7763 146.974 23.7763C158.669 23.7763 168.647 26.0038 176.937 30.4249L176.945 30.4296L176.954 30.434C185.184 34.5492 191.817 41.9775 196.819 52.8143L197.332 53.9253L198.089 52.9642C205.309 43.8001 214.474 36.7156 225.597 31.7103L225.605 31.7068C237.02 26.417 248.702 23.7763 260.658 23.7763C278.453 23.7763 292.559 29.3302 303.062 40.385C313.523 51.397 318.855 70.7968 318.855 98.8158V224.382H282.461V98.8158C282.461 78.5795 279.658 63.9389 273.923 55.0461C268.162 45.8313 259.493 41.2237 248.026 41.2237C239.976 41.2237 231.553 44.2423 222.77 50.1902C214.007 55.8455 207.463 62.0923 203.18 68.9446L202.993 69.2442L203.104 69.5793C203.774 71.5882 204.296 75.0152 204.647 79.9219C204.996 84.8094 205.171 91.1056 205.171 98.8158V224.382H168.776V98.8158C168.776 78.5789 165.974 63.9381 160.238 55.0453C154.478 45.8311 145.808 41.2237 134.342 41.2237C119.185 41.2237 104.961 48.8109 91.6757 63.7918L91.4869 64.0048V64.2895V224.382H55.0921V77.7631C55.0921 63.4128 53.1285 52.7243 49.0985 45.8119C44.9785 38.4608 36.7867 34.9079 24.8684 34.9079Z" fill="#F9F9F9" stroke="#2D2D2D" stroke-width="1.5"/>
<path class="logo-agile" d="M152.579 67.2368V225.132" stroke="#ecbc2a" stroke-width="2"/>
<path class="logo-software" d="M37.4475 67.2368V225.132" stroke="#369187" stroke-width="2"/>
<path class="logo-design" d="M264.421 67.2368V225.132" stroke="#2C306F" stroke-width="2"/>
<path d="M24.903 199.209C24.7725 199.324 24.6573 199.459 24.5576 199.614C24.4501 199.765 24.358 199.939 24.2812 200.13C24.2045 200.321 24.1431 200.528 24.097 200.752C24.051 200.965 24.028 201.196 24.028 201.442C24.028 202.156 24.1661 202.683 24.4424 203.021C24.7111 203.35 25.0795 203.515 25.5477 203.515C25.8701 203.515 26.1233 203.439 26.3076 203.285C26.4918 203.123 26.6414 202.873 26.7566 202.538C26.8717 202.199 26.9907 201.768 27.1135 201.245C27.2363 200.663 27.3821 200.16 27.551 199.739C27.7198 199.317 27.9501 198.992 28.2418 198.758C28.5257 198.531 28.9134 198.416 29.4046 198.416C29.7807 198.416 30.1069 198.488 30.3832 198.633C30.6595 198.778 30.8898 198.982 31.074 199.242C31.2582 199.505 31.3964 199.814 31.4885 200.176C31.5729 200.538 31.6151 200.933 31.6151 201.363C31.6151 201.785 31.5729 202.189 31.4885 202.584C31.3964 202.965 31.2659 203.331 31.097 203.676C30.9205 204.021 30.6979 204.344 30.4293 204.643L29.773 204.242C29.9265 204.094 30.0724 203.923 30.2105 203.722C30.341 203.515 30.46 203.288 30.5674 203.044C30.6749 202.791 30.7593 202.521 30.8207 202.238C30.8744 201.946 30.9013 201.646 30.9013 201.34C30.9013 200.686 30.7823 200.179 30.5444 199.817C30.3065 199.452 29.9534 199.268 29.4852 199.268C29.1475 199.268 28.8788 199.36 28.6793 199.544C28.472 199.725 28.3032 200.002 28.1727 200.37C28.0422 200.742 27.9155 201.192 27.7928 201.729C27.6623 202.298 27.5164 202.778 27.3553 203.169C27.1941 203.561 26.983 203.857 26.722 204.058C26.4534 204.248 26.1003 204.344 25.6628 204.344C25.1562 204.344 24.7303 204.222 24.3849 203.975C24.0318 203.722 23.767 203.377 23.5905 202.939C23.4062 202.502 23.3141 201.998 23.3141 201.429C23.3141 201.071 23.3525 200.735 23.4293 200.429C23.4983 200.114 23.602 199.827 23.7401 199.567C23.8783 199.298 24.051 199.048 24.2582 198.817L24.903 199.209ZM31.6612 194.6C31.6612 195.028 31.5806 195.429 31.4194 195.798C31.2505 196.156 31.0241 196.472 30.7401 196.742C30.4484 197.002 30.1184 197.206 29.75 197.35C29.3739 197.495 28.9786 197.571 28.5641 197.571C28.1343 197.571 27.7352 197.495 27.3668 197.35C26.9907 197.206 26.6606 196.998 26.3766 196.729C26.085 196.459 25.8585 196.146 25.6974 195.785C25.5285 195.416 25.4441 195.018 25.4441 194.587C25.4441 194.156 25.5285 193.762 25.6974 193.403C25.8585 193.041 26.085 192.725 26.3766 192.459C26.6606 192.189 26.9907 191.982 27.3668 191.837C27.7352 191.689 28.1343 191.617 28.5641 191.617C28.9786 191.617 29.3739 191.689 29.75 191.837C30.1184 191.982 30.4484 192.189 30.7401 192.459C31.0241 192.719 31.2505 193.035 31.4194 193.403C31.5806 193.762 31.6612 194.163 31.6612 194.6ZM28.5756 196.775C29.0208 196.775 29.4276 196.679 29.796 196.488C30.1568 196.288 30.4446 196.021 30.6595 195.692C30.8668 195.363 30.9704 194.998 30.9704 194.6C30.9704 194.199 30.8629 193.834 30.648 193.505C30.4331 193.176 30.1414 192.91 29.773 192.712C29.3969 192.512 28.9901 192.413 28.5526 192.413C28.1075 192.413 27.7006 192.512 27.3322 192.712C26.9638 192.91 26.6721 193.176 26.4572 193.505C26.2423 193.834 26.1349 194.199 26.1349 194.6C26.1349 194.998 26.2461 195.363 26.4687 195.692C26.6913 196.015 26.9868 196.275 27.3553 196.475C27.716 196.676 28.1228 196.775 28.5756 196.775ZM31.546 190.12H26.1694V190.949H25.5477V190.12H25.3865C24.8953 190.12 24.4731 190.051 24.1201 189.913C23.767 189.768 23.4983 189.564 23.3141 189.304C23.1223 189.035 23.0263 188.719 23.0263 188.36C23.0263 188.12 23.0608 187.89 23.1299 187.669C23.199 187.446 23.2911 187.255 23.4062 187.094L23.9704 187.334C23.8859 187.436 23.8207 187.564 23.7747 187.725C23.7286 187.887 23.7056 188.048 23.7056 188.209C23.7056 188.571 23.8476 188.85 24.1316 189.051C24.4155 189.242 24.8262 189.337 25.3635 189.337H25.5477V187.679H26.1694V189.337H31.546V190.12ZM31.2582 183.729C31.2812 183.791 31.3234 183.887 31.3849 184.018C31.4463 184.15 31.5 184.304 31.546 184.489C31.5921 184.673 31.6151 184.873 31.6151 185.087C31.6151 185.311 31.5729 185.521 31.4885 185.722C31.404 185.913 31.2774 186.067 31.1085 186.183C30.932 186.298 30.7171 186.354 30.4638 186.354H26.1694V187.183H25.5477V186.354H23.5214V185.571H25.5477V184.189H26.1694V185.571H30.2451C30.46 185.558 30.6211 185.479 30.7286 185.34C30.8361 185.196 30.8898 185.031 30.8898 184.847C30.8898 184.633 30.8553 184.436 30.7862 184.258C30.7094 184.084 30.6557 183.975 30.625 183.936L31.2582 183.729ZM25.5477 175.199V174.428L31.546 177.008V177.686L28.5641 178.942L31.546 180.186V180.863L25.5477 183.442V182.683L30.7401 180.495L28.0345 179.39L25.5592 180.403V179.702L27.5049 178.942L25.5592 178.169V177.479L28.0345 178.482L30.7401 177.377L25.5477 175.199ZM29.8191 174.016C29.443 174.016 29.1206 173.909 28.852 173.694C28.5756 173.479 28.3646 173.183 28.2187 172.807C28.0652 172.423 27.9885 171.982 27.9885 171.483C27.9885 171.191 28.0115 170.888 28.0576 170.574C28.1036 170.259 28.1727 169.979 28.2648 169.733H27.7582C27.2516 169.733 26.8487 169.883 26.5493 170.182C26.25 170.482 26.1003 170.896 26.1003 171.426C26.1003 171.748 26.1617 172.066 26.2845 172.381C26.3997 172.688 26.5724 173.011 26.8026 173.348L26.25 173.648C25.9813 173.256 25.7818 172.872 25.6513 172.496C25.5131 172.12 25.4441 171.737 25.4441 171.345C25.4441 170.608 25.6552 170.025 26.0773 169.595C26.4994 169.165 27.0828 168.95 27.8273 168.95H30.602C30.7094 168.95 30.79 168.927 30.8437 168.881C30.8898 168.835 30.9167 168.762 30.9243 168.663H31.546C31.5537 168.747 31.5614 168.82 31.5691 168.881C31.5767 168.942 31.5767 168.989 31.5691 169.019C31.5614 169.211 31.5 169.357 31.3849 169.457C31.2697 169.557 31.1469 169.61 31.0164 169.618L30.5789 169.63C30.9243 169.898 31.193 170.247 31.3849 170.677C31.5691 171.107 31.6612 171.544 31.6612 171.99C31.6612 172.373 31.5806 172.723 31.4194 173.038C31.2505 173.344 31.0279 173.586 30.7516 173.763C30.4677 173.932 30.1568 174.016 29.8191 174.016ZM30.2796 169.998C30.1721 169.914 30.0685 169.848 29.9687 169.802C29.869 169.756 29.7807 169.733 29.7039 169.733H28.8289C28.7292 169.994 28.6524 170.266 28.5987 170.551C28.545 170.827 28.5181 171.107 28.5181 171.391C28.5181 171.951 28.6294 172.404 28.852 172.75C29.0746 173.095 29.3777 173.268 29.7615 173.268C29.9841 173.268 30.1952 173.21 30.3947 173.095C30.5866 172.98 30.7478 172.811 30.8783 172.589C31.0011 172.366 31.0625 172.105 31.0625 171.806C31.0625 171.429 30.9896 171.08 30.8437 170.758C30.6979 170.428 30.5099 170.174 30.2796 169.998ZM26.2385 164.265C26.2538 164.787 26.3997 165.248 26.676 165.647C26.9523 166.038 27.3322 166.314 27.8158 166.476H31.546V167.259H25.5477V166.522H26.9868C26.5647 166.314 26.2231 166.042 25.9622 165.704C25.7012 165.359 25.5554 164.994 25.5247 164.611C25.517 164.534 25.5131 164.469 25.5131 164.415C25.5131 164.354 25.517 164.304 25.5247 164.265H26.2385ZM31.6612 160.823C31.6612 161.253 31.5806 161.652 31.4194 162.02C31.2505 162.389 31.0241 162.707 30.7401 162.976C30.4484 163.245 30.1146 163.456 29.7385 163.609C29.3624 163.755 28.9594 163.828 28.5296 163.828C27.9693 163.828 27.455 163.701 26.9868 163.448C26.5186 163.187 26.1464 162.83 25.8701 162.377C25.5861 161.924 25.4441 161.41 25.4441 160.835C25.4441 160.243 25.5861 159.729 25.8701 159.292C26.154 158.847 26.5302 158.497 26.9983 158.244C27.4589 157.991 27.9655 157.864 28.5181 157.864C28.5795 157.864 28.6409 157.864 28.7023 157.864C28.756 157.864 28.7982 157.868 28.8289 157.876V163.011C29.2588 162.972 29.6425 162.853 29.9803 162.654C30.3103 162.446 30.5751 162.182 30.7747 161.859C30.9665 161.529 31.0625 161.172 31.0625 160.788C31.0625 160.397 30.9627 160.029 30.7631 159.683C30.5636 159.33 30.3026 159.085 29.9803 158.946L30.1645 158.267C30.4484 158.39 30.7056 158.578 30.9358 158.831C31.1661 159.085 31.3465 159.384 31.477 159.729C31.5998 160.067 31.6612 160.432 31.6612 160.823ZM28.2648 163.034V158.601C27.8273 158.632 27.4435 158.751 27.1135 158.958C26.7834 159.158 26.5263 159.422 26.3421 159.752C26.1502 160.075 26.0543 160.432 26.0543 160.823C26.0543 161.214 26.1502 161.571 26.3421 161.894C26.5263 162.216 26.7873 162.481 27.125 162.688C27.455 162.888 27.835 163.003 28.2648 163.034ZM31.546 153.561H23.3717V150.786C23.3717 149.918 23.5559 149.197 23.9243 148.621C24.2851 148.038 24.7763 147.601 25.398 147.309C26.0121 147.017 26.6952 146.871 27.4474 146.871C28.2763 146.871 28.9978 147.033 29.6118 147.355C30.2259 147.67 30.7017 148.122 31.0395 148.713C31.3772 149.297 31.546 149.988 31.546 150.786V153.561ZM27.4474 147.677C26.795 147.677 26.2155 147.8 25.7089 148.046C25.2023 148.284 24.807 148.633 24.523 149.093C24.2313 149.554 24.0855 150.118 24.0855 150.786V152.755H30.8322V150.786C30.8322 150.111 30.6826 149.542 30.3832 149.082C30.0839 148.621 29.6809 148.272 29.1743 148.034C28.6601 147.796 28.0844 147.677 27.4474 147.677ZM31.6612 142.901C31.6612 143.331 31.5806 143.73 31.4194 144.099C31.2505 144.467 31.0241 144.786 30.7401 145.054C30.4484 145.323 30.1146 145.534 29.7385 145.688C29.3624 145.833 28.9594 145.906 28.5296 145.906C27.9693 145.906 27.455 145.78 26.9868 145.526C26.5186 145.265 26.1464 144.908 25.8701 144.456C25.5861 144.003 25.4441 143.489 25.4441 142.913C25.4441 142.322 25.5861 141.808 25.8701 141.37C26.154 140.925 26.5302 140.576 26.9983 140.322C27.4589 140.069 27.9655 139.942 28.5181 139.942C28.5795 139.942 28.6409 139.942 28.7023 139.942C28.756 139.942 28.7982 139.946 28.8289 139.954V145.089C29.2588 145.05 29.6425 144.931 29.9803 144.732C30.3103 144.525 30.5751 144.26 30.7747 143.938C30.9665 143.607 31.0625 143.25 31.0625 142.867C31.0625 142.475 30.9627 142.107 30.7631 141.762C30.5636 141.408 30.3026 141.163 29.9803 141.025L30.1645 140.345C30.4484 140.468 30.7056 140.656 30.9358 140.91C31.1661 141.163 31.3465 141.462 31.477 141.808C31.5998 142.145 31.6612 142.51 31.6612 142.901ZM28.2648 145.112V140.679C27.8273 140.71 27.4435 140.829 27.1135 141.036C26.7834 141.236 26.5263 141.5 26.3421 141.831C26.1502 142.153 26.0543 142.51 26.0543 142.901C26.0543 143.293 26.1502 143.65 26.3421 143.972C26.5263 144.294 26.7873 144.559 27.125 144.766C27.455 144.966 27.835 145.081 28.2648 145.112ZM31.546 137.107L25.5477 139.537V138.719L30.7631 136.67L25.5477 134.609V133.838L31.546 136.267V137.107ZM31.6612 130.365C31.6612 130.795 31.5806 131.194 31.4194 131.562C31.2505 131.931 31.0241 132.249 30.7401 132.518C30.4484 132.787 30.1146 132.998 29.7385 133.151C29.3624 133.297 28.9594 133.37 28.5296 133.37C27.9693 133.37 27.455 133.243 26.9868 132.99C26.5186 132.729 26.1464 132.372 25.8701 131.919C25.5861 131.466 25.4441 130.952 25.4441 130.376C25.4441 129.786 25.5861 129.271 25.8701 128.834C26.154 128.389 26.5302 128.039 26.9983 127.786C27.4589 127.533 27.9655 127.406 28.5181 127.406C28.5795 127.406 28.6409 127.406 28.7023 127.406C28.756 127.406 28.7982 127.41 28.8289 127.417V132.552C29.2588 132.514 29.6425 132.395 29.9803 132.195C30.3103 131.988 30.5751 131.723 30.7747 131.401C30.9665 131.071 31.0625 130.714 31.0625 130.33C31.0625 129.939 30.9627 129.57 30.7631 129.225C30.5636 128.872 30.3026 128.626 29.9803 128.488L30.1645 127.809C30.4484 127.932 30.7056 128.12 30.9358 128.373C31.1661 128.626 31.3465 128.926 31.477 129.271C31.5998 129.609 31.6612 129.973 31.6612 130.365ZM28.2648 132.575V128.143C27.8273 128.174 27.4435 128.292 27.1135 128.5C26.7834 128.699 26.5263 128.964 26.3421 129.294C26.1502 129.616 26.0543 129.973 26.0543 130.365C26.0543 130.756 26.1502 131.113 26.3421 131.436C26.5263 131.758 26.7873 132.023 27.125 132.23C27.455 132.43 27.835 132.545 28.2648 132.575ZM23.1414 126.163V125.381H30.1875C30.4868 125.381 30.6826 125.327 30.7747 125.219C30.8668 125.112 30.9128 124.982 30.9128 124.828C30.9128 124.69 30.8975 124.552 30.8668 124.413C30.8361 124.275 30.8054 124.157 30.7747 124.057L31.4079 123.918C31.4693 124.064 31.5192 124.245 31.5576 124.46C31.5959 124.667 31.6151 124.847 31.6151 125.001C31.6151 125.354 31.5115 125.638 31.3043 125.853C31.097 126.06 30.813 126.163 30.4523 126.163H23.1414ZM31.6612 120.505C31.6612 120.935 31.5806 121.334 31.4194 121.703C31.2505 122.064 31.0241 122.378 30.7401 122.647C30.4484 122.908 30.1184 123.111 29.75 123.257C29.3739 123.403 28.9786 123.476 28.5641 123.476C28.1343 123.476 27.7352 123.403 27.3668 123.257C26.9907 123.111 26.6606 122.904 26.3766 122.635C26.085 122.366 25.8585 122.052 25.6974 121.691C25.5285 121.323 25.4441 120.924 25.4441 120.494C25.4441 120.064 25.5285 119.669 25.6974 119.308C25.8585 118.947 26.085 118.633 26.3766 118.364C26.6606 118.095 26.9907 117.888 27.3668 117.742C27.7352 117.596 28.1343 117.523 28.5641 117.523C28.9786 117.523 29.3739 117.596 29.75 117.742C30.1184 117.888 30.4484 118.095 30.7401 118.364C31.0241 118.625 31.2505 118.939 31.4194 119.308C31.5806 119.669 31.6612 120.068 31.6612 120.505ZM28.5756 122.681C29.0208 122.681 29.4276 122.585 29.796 122.393C30.1568 122.194 30.4446 121.929 30.6595 121.599C30.8668 121.269 30.9704 120.904 30.9704 120.505C30.9704 120.106 30.8629 119.741 30.648 119.412C30.4331 119.082 30.1414 118.817 29.773 118.617C29.3969 118.417 28.9901 118.318 28.5526 118.318C28.1075 118.318 27.7006 118.417 27.3322 118.617C26.9638 118.817 26.6721 119.082 26.4572 119.412C26.2423 119.741 26.1349 120.106 26.1349 120.505C26.1349 120.904 26.2461 121.269 26.4687 121.599C26.6913 121.921 26.9868 122.182 27.3553 122.382C27.716 122.582 28.1228 122.681 28.5756 122.681ZM31.6612 113.152C31.6612 113.65 31.5307 114.099 31.2697 114.499C31.0088 114.89 30.6864 115.201 30.3026 115.431H33.9983V116.214H25.5477V115.512H26.7105C26.3344 115.274 26.0312 114.955 25.801 114.556C25.563 114.157 25.4441 113.731 25.4441 113.278C25.4441 112.864 25.5323 112.484 25.7089 112.139C25.8777 111.793 26.108 111.494 26.3997 111.24C26.6913 110.987 27.0252 110.791 27.4013 110.653C27.7697 110.507 28.1535 110.435 28.5526 110.435C29.1129 110.435 29.631 110.55 30.1069 110.78C30.5751 111.002 30.9512 111.317 31.2352 111.724C31.5192 112.131 31.6612 112.607 31.6612 113.152ZM30.9704 113.37C30.9704 113.04 30.9052 112.745 30.7747 112.484C30.6365 112.223 30.4523 112 30.222 111.816C29.9918 111.624 29.7346 111.478 29.4506 111.379C29.159 111.279 28.8596 111.229 28.5526 111.229C28.2303 111.229 27.9232 111.287 27.6316 111.402C27.3399 111.509 27.0828 111.666 26.8602 111.874C26.6376 112.081 26.4611 112.319 26.3306 112.588C26.2001 112.856 26.1349 113.148 26.1349 113.463C26.1349 113.662 26.1732 113.869 26.25 114.084C26.3267 114.299 26.438 114.506 26.5839 114.706C26.722 114.898 26.8794 115.059 27.0559 115.189C27.2325 115.32 27.4205 115.4 27.6201 115.431H29.4622C29.7461 115.308 30.0033 115.143 30.2335 114.936C30.4561 114.729 30.6365 114.491 30.7747 114.222C30.9052 113.946 30.9704 113.662 30.9704 113.37ZM31.546 100.186V100.968H28.1957C27.4973 100.968 26.983 101.08 26.653 101.302C26.3229 101.525 26.1579 101.855 26.1579 102.292C26.1579 102.745 26.3191 103.152 26.6414 103.513C26.9638 103.866 27.3783 104.115 27.8849 104.261H31.546V105.044H28.1957C27.4896 105.044 26.9753 105.152 26.653 105.366C26.3229 105.581 26.1579 105.912 26.1579 106.357C26.1579 106.802 26.3152 107.205 26.6299 107.565C26.9446 107.926 27.3591 108.18 27.8733 108.325H31.546V109.108H25.5477V108.394H26.9062C26.438 108.141 26.0773 107.819 25.824 107.427C25.5707 107.028 25.4441 106.587 25.4441 106.103C25.4441 105.604 25.5861 105.201 25.8701 104.894C26.154 104.588 26.5263 104.399 26.9868 104.33C26.4803 104.054 26.0965 103.724 25.8355 103.34C25.5746 102.949 25.4441 102.507 25.4441 102.016C25.4441 101.678 25.5055 101.394 25.6283 101.164C25.7511 100.926 25.9276 100.738 26.1579 100.6C26.3805 100.454 26.653 100.351 26.9753 100.289C27.29 100.22 27.6431 100.186 28.0345 100.186H31.546ZM31.6612 95.9378C31.6612 96.3678 31.5806 96.7668 31.4194 97.1352C31.2505 97.5036 31.0241 97.8221 30.7401 98.0908C30.4484 98.3596 30.1146 98.5704 29.7385 98.724C29.3624 98.8697 28.9594 98.9428 28.5296 98.9428C27.9693 98.9428 27.455 98.8161 26.9868 98.5628C26.5186 98.302 26.1464 97.9451 25.8701 97.4921C25.5861 97.0392 25.4441 96.525 25.4441 95.9494C25.4441 95.3582 25.5861 94.8441 25.8701 94.4066C26.154 93.9615 26.5302 93.6122 26.9983 93.3589C27.4589 93.1056 27.9655 92.979 28.5181 92.979C28.5795 92.979 28.6409 92.979 28.7023 92.979C28.756 92.979 28.7982 92.9829 28.8289 92.9905V98.1253C29.2588 98.0869 29.6425 97.9681 29.9803 97.7684C30.3103 97.5612 30.5751 97.2964 30.7747 96.974C30.9665 96.6441 31.0625 96.2872 31.0625 95.9033C31.0625 95.5119 30.9627 95.1434 30.7631 94.798C30.5636 94.4451 30.3026 94.1994 29.9803 94.0612L30.1645 93.3819C30.4484 93.5046 30.7056 93.6928 30.9358 93.9461C31.1661 94.1993 31.3465 94.4987 31.477 94.8441C31.5998 95.1819 31.6612 95.5464 31.6612 95.9378ZM28.2648 98.1484V93.7158C27.8273 93.7464 27.4435 93.8655 27.1135 94.0727C26.7834 94.2724 26.5263 94.5372 26.3421 94.8671C26.1502 95.1895 26.0543 95.5464 26.0543 95.9378C26.0543 96.3293 26.1502 96.6862 26.3421 97.0086C26.5263 97.3309 26.7873 97.5957 27.125 97.803C27.455 98.0026 27.835 98.1178 28.2648 98.1484ZM31.546 86.7283V87.5112H28.1957C27.4896 87.5112 26.9753 87.6148 26.653 87.822C26.3229 88.0293 26.1579 88.3556 26.1579 88.8007C26.1579 89.1076 26.2346 89.4109 26.3881 89.7102C26.534 90.0096 26.7374 90.2744 26.9983 90.5046C27.2516 90.7273 27.5433 90.8885 27.8733 90.9882H31.546V91.7711H25.5477V91.0573H26.9062C26.6146 90.8961 26.3613 90.6849 26.1464 90.424C25.9238 90.1632 25.7511 89.8674 25.6283 89.5375C25.5055 89.2076 25.4441 88.8658 25.4441 88.5128C25.4441 88.1829 25.5055 87.9027 25.6283 87.6724C25.7511 87.4421 25.9276 87.2579 26.1579 87.1197C26.3805 86.9816 26.653 86.8819 26.9753 86.8204C27.29 86.7589 27.6431 86.7283 28.0345 86.7283H31.546ZM31.2582 82.2368C31.2812 82.298 31.3234 82.3941 31.3849 82.5247C31.4463 82.6549 31.5 82.8125 31.546 82.9967C31.5921 83.1809 31.6151 83.3803 31.6151 83.5954C31.6151 83.8178 31.5729 84.0289 31.4885 84.2286C31.404 84.4204 31.2774 84.574 31.1085 84.6891C30.932 84.8043 30.7171 84.8619 30.4638 84.8619H26.1694V85.6908H25.5477V84.8619H23.5214V84.079H25.5477V82.6974H26.1694V84.079H30.2451C30.46 84.0635 30.6211 83.9868 30.7286 83.8487C30.8361 83.7026 30.8898 83.5378 30.8898 83.3536C30.8898 83.1385 30.8553 82.9428 30.7862 82.7665C30.7094 82.5898 30.6557 82.4823 30.625 82.4441L31.2582 82.2368Z" fill="#2D2D2D"/>
<path d="M138.388 213.383V212.702L146.563 209.304V210.156L144.007 211.219V214.89L146.563 215.939V216.801L138.388 213.383ZM143.373 211.4L139.332 213.048L143.373 214.719V211.4ZM146.643 206.058C146.643 206.465 146.559 206.84 146.39 207.186C146.221 207.531 145.994 207.831 145.711 208.084C145.419 208.331 145.089 208.521 144.72 208.66C144.352 208.798 143.972 208.867 143.581 208.867C143.159 208.867 142.763 208.801 142.395 208.673C142.019 208.535 141.685 208.34 141.393 208.097C141.101 207.844 140.875 207.548 140.714 207.209C140.545 206.87 140.461 206.495 140.461 206.081C140.461 205.567 140.591 205.12 140.852 204.745C141.113 204.36 141.435 204.038 141.819 203.778H140.564V203.077H146.586C147.138 203.077 147.603 203.209 147.979 203.479C148.363 203.738 148.65 204.097 148.842 204.551C149.034 204.995 149.13 205.482 149.13 206.012C149.13 206.696 149.007 207.248 148.762 207.669C148.516 208.09 148.186 208.436 147.771 208.706L147.391 208.222C147.767 207.985 148.048 207.669 148.232 207.278C148.416 206.88 148.508 206.456 148.508 206.012C148.508 205.62 148.435 205.265 148.289 204.942C148.151 204.61 147.94 204.35 147.656 204.16C147.372 203.959 147.015 203.86 146.586 203.86H145.4C145.776 204.09 146.079 204.403 146.309 204.804C146.532 205.202 146.643 205.62 146.643 206.058ZM145.987 205.84C145.987 205.6 145.945 205.373 145.86 205.16C145.776 204.936 145.664 204.735 145.526 204.551C145.381 204.367 145.219 204.212 145.043 204.09C144.866 203.965 144.686 203.89 144.502 203.86H142.648C142.356 203.975 142.099 204.14 141.877 204.354C141.646 204.567 141.47 204.814 141.347 205.09C141.216 205.36 141.151 205.64 141.151 205.933C141.151 206.268 141.224 206.571 141.37 206.84C141.508 207.1 141.696 207.324 141.934 207.508C142.164 207.686 142.425 207.824 142.717 207.923C143.009 208.021 143.3 208.074 143.592 208.074C143.914 208.074 144.221 208.015 144.513 207.9C144.797 207.785 145.054 207.627 145.285 207.429C145.507 207.222 145.68 206.982 145.803 206.715C145.925 206.439 145.987 206.146 145.987 205.84ZM146.563 201.347H140.564V200.564H146.563V201.347ZM139.309 201.347H138.158V200.564H139.309V201.347ZM138.158 198.804V198.021H145.204C145.503 198.021 145.699 197.969 145.791 197.86C145.883 197.755 145.929 197.623 145.929 197.469C145.929 197.331 145.914 197.192 145.883 197.054C145.853 196.916 145.822 196.798 145.791 196.699L146.424 196.561C146.486 196.706 146.536 196.887 146.574 197.1C146.613 197.308 146.632 197.489 146.632 197.643C146.632 197.995 146.528 198.278 146.321 198.495C146.113 198.702 145.83 198.804 145.469 198.804H138.158ZM146.678 193.114C146.678 193.541 146.597 193.942 146.436 194.311C146.267 194.679 146.04 194.995 145.757 195.265C145.465 195.535 145.131 195.745 144.755 195.9C144.379 196.044 143.976 196.117 143.546 196.117C142.986 196.117 142.471 195.992 142.003 195.738C141.535 195.475 141.163 195.12 140.887 194.666C140.603 194.212 140.461 193.699 140.461 193.123C140.461 192.531 140.603 192.018 140.887 191.581C141.17 191.137 141.547 190.788 142.015 190.535C142.475 190.281 142.982 190.153 143.535 190.153C143.596 190.153 143.657 190.153 143.719 190.153C143.772 190.153 143.815 190.156 143.845 190.166V195.301C144.275 195.262 144.659 195.143 144.997 194.942C145.327 194.735 145.591 194.472 145.791 194.15C145.983 193.817 146.079 193.462 146.079 193.077C146.079 192.686 145.979 192.317 145.78 191.972C145.58 191.62 145.319 191.373 144.997 191.235L145.181 190.558C145.465 190.679 145.722 190.867 145.952 191.12C146.183 191.373 146.363 191.673 146.493 192.018C146.616 192.357 146.678 192.722 146.678 193.114ZM143.281 195.324V190.89C142.844 190.919 142.46 191.041 142.13 191.248C141.8 191.446 141.543 191.712 141.359 192.041C141.167 192.363 141.071 192.722 141.071 193.114C141.071 193.505 141.167 193.86 141.359 194.183C141.543 194.505 141.804 194.771 142.141 194.979C142.471 195.176 142.851 195.291 143.281 195.324ZM146.563 185.85H138.388V182.465C138.388 182.113 138.461 181.791 138.607 181.498C138.753 181.199 138.952 180.942 139.206 180.725C139.451 180.512 139.728 180.344 140.035 180.219C140.334 180.097 140.641 180.035 140.956 180.035C141.401 180.035 141.823 180.137 142.222 180.334C142.613 180.528 142.932 180.801 143.178 181.153C143.423 181.505 143.546 181.919 143.546 182.396V185.044H146.563V185.85ZM142.832 185.044V182.429C142.832 182.107 142.744 181.827 142.567 181.59C142.391 181.354 142.161 181.169 141.877 181.038C141.593 180.906 141.286 180.84 140.956 180.84C140.618 180.84 140.307 180.919 140.023 181.071C139.739 181.225 139.516 181.429 139.355 181.683C139.187 181.929 139.102 182.199 139.102 182.498V185.044H142.832ZM141.255 175.856C141.27 176.378 141.416 176.838 141.692 177.237C141.969 177.63 142.349 177.906 142.832 178.067H146.563V178.85H140.564V178.113H142.003C141.581 177.906 141.239 177.633 140.979 177.295C140.718 176.949 140.572 176.585 140.541 176.201C140.534 176.124 140.53 176.059 140.53 176.005C140.53 175.944 140.534 175.894 140.541 175.856H141.255ZM146.678 172.448C146.678 172.878 146.597 173.277 146.436 173.645C146.267 174.006 146.04 174.321 145.757 174.589C145.465 174.85 145.135 175.054 144.766 175.2C144.39 175.345 143.995 175.418 143.581 175.418C143.151 175.418 142.752 175.345 142.383 175.2C142.007 175.054 141.677 174.846 141.393 174.578C141.101 174.309 140.875 173.994 140.714 173.634C140.545 173.265 140.461 172.866 140.461 172.437C140.461 172.007 140.545 171.611 140.714 171.251C140.875 170.89 141.101 170.575 141.393 170.307C141.677 170.038 142.007 169.831 142.383 169.685C142.752 169.539 143.151 169.466 143.581 169.466C143.995 169.466 144.39 169.539 144.766 169.685C145.135 169.831 145.465 170.038 145.757 170.307C146.04 170.567 146.267 170.882 146.436 171.251C146.597 171.611 146.678 172.011 146.678 172.448ZM143.592 174.624C144.037 174.624 144.444 174.528 144.813 174.336C145.173 174.137 145.461 173.872 145.676 173.542C145.883 173.212 145.987 172.847 145.987 172.448C145.987 172.049 145.879 171.684 145.664 171.354C145.45 171.024 145.158 170.759 144.789 170.56C144.413 170.36 144.007 170.261 143.569 170.261C143.124 170.261 142.717 170.36 142.349 170.56C141.98 170.759 141.688 171.024 141.474 171.354C141.259 171.684 141.151 172.049 141.151 172.448C141.151 172.847 141.263 173.212 141.485 173.542C141.708 173.864 142.003 174.125 142.372 174.325C142.733 174.524 143.139 174.624 143.592 174.624ZM148.646 169.055C148.646 169.308 148.612 169.546 148.543 169.768C148.474 169.999 148.359 170.198 148.197 170.367L147.668 169.987C147.775 169.872 147.848 169.738 147.887 169.584C147.925 169.439 147.944 169.293 147.944 169.147C147.944 168.963 147.898 168.79 147.806 168.629C147.714 168.467 147.583 168.337 147.414 168.237C147.253 168.13 147.073 168.076 146.873 168.076H140.564V167.293H146.827C147.18 167.293 147.495 167.378 147.771 167.546C148.048 167.715 148.263 167.934 148.416 168.203C148.57 168.471 148.646 168.755 148.646 169.055ZM139.309 168.076H138.158V167.293H139.309V168.076ZM146.678 162.98C146.678 163.41 146.597 163.809 146.436 164.178C146.267 164.546 146.04 164.864 145.757 165.133C145.465 165.402 145.131 165.613 144.755 165.766C144.379 165.912 143.976 165.985 143.546 165.985C142.986 165.985 142.471 165.859 142.003 165.605C141.535 165.344 141.163 164.988 140.887 164.535C140.603 164.082 140.461 163.567 140.461 162.992C140.461 162.401 140.603 161.887 140.887 161.449C141.17 161.004 141.547 160.655 142.015 160.401C142.475 160.148 142.982 160.021 143.535 160.021C143.596 160.021 143.657 160.021 143.719 160.021C143.772 160.021 143.815 160.025 143.845 160.033V165.168C144.275 165.129 144.659 165.011 144.997 164.811C145.327 164.604 145.591 164.339 145.791 164.016C145.983 163.687 146.079 163.33 146.079 162.946C146.079 162.554 145.979 162.186 145.78 161.84C145.58 161.488 145.319 161.242 144.997 161.104L145.181 160.424C145.465 160.547 145.722 160.735 145.952 160.988C146.183 161.242 146.363 161.541 146.493 161.887C146.616 162.224 146.678 162.589 146.678 162.98ZM143.281 165.191V160.758C142.844 160.789 142.46 160.908 142.13 161.115C141.8 161.315 141.543 161.58 141.359 161.91C141.167 162.232 141.071 162.589 141.071 162.98C141.071 163.372 141.167 163.729 141.359 164.051C141.543 164.373 141.804 164.638 142.141 164.845C142.471 165.045 142.851 165.16 143.281 165.191ZM146.678 156.212C146.678 156.649 146.597 157.052 146.436 157.42C146.267 157.781 146.037 158.1 145.745 158.376C145.453 158.645 145.119 158.856 144.743 159.009C144.367 159.155 143.968 159.228 143.546 159.228C142.978 159.228 142.46 159.101 141.992 158.848C141.524 158.595 141.151 158.242 140.875 157.789C140.599 157.336 140.461 156.814 140.461 156.223C140.461 155.663 140.591 155.168 140.852 154.738C141.105 154.308 141.451 153.989 141.888 153.782L142.13 154.542C141.823 154.711 141.585 154.949 141.416 155.256C141.239 155.555 141.151 155.889 141.151 156.258C141.151 156.657 141.255 157.021 141.462 157.351C141.669 157.681 141.953 157.946 142.314 158.146C142.675 158.338 143.086 158.434 143.546 158.434C143.999 158.434 144.41 158.334 144.778 158.134C145.146 157.935 145.442 157.67 145.664 157.34C145.879 157.01 145.987 156.645 145.987 156.246C145.987 155.985 145.941 155.736 145.849 155.498C145.757 155.252 145.634 155.041 145.48 154.864C145.319 154.68 145.146 154.558 144.962 154.496L145.192 153.725C145.476 153.832 145.734 154.013 145.964 154.266C146.187 154.512 146.363 154.803 146.493 155.141C146.616 155.471 146.678 155.828 146.678 156.212ZM146.275 149.616C146.298 149.678 146.34 149.774 146.401 149.904C146.463 150.035 146.516 150.192 146.563 150.376C146.609 150.561 146.632 150.76 146.632 150.975C146.632 151.198 146.589 151.409 146.505 151.608C146.42 151.8 146.294 151.954 146.125 152.069C145.948 152.184 145.734 152.241 145.48 152.241H141.186V153.07H140.564V152.241H138.538V151.459H140.564V150.077H141.186V151.459H145.262C145.476 151.443 145.638 151.366 145.745 151.228C145.853 151.083 145.906 150.917 145.906 150.733C145.906 150.518 145.872 150.323 145.803 150.146C145.726 149.969 145.672 149.862 145.641 149.824L146.275 149.616ZM146.563 138.301H139.908L145.077 141.26V141.766L139.908 144.737H146.563V145.542H138.388V144.714L143.984 141.524L138.388 138.312V137.495H146.563V138.301ZM144.836 136.147C144.46 136.147 144.137 136.039 143.868 135.825C143.592 135.61 143.381 135.314 143.235 134.938C143.082 134.554 143.005 134.113 143.005 133.614C143.005 133.322 143.028 133.019 143.074 132.705C143.12 132.39 143.189 132.11 143.281 131.864H142.775C142.268 131.864 141.865 132.014 141.566 132.313C141.266 132.612 141.117 133.027 141.117 133.557C141.117 133.879 141.178 134.197 141.301 134.512C141.416 134.819 141.589 135.141 141.819 135.479L141.266 135.779C140.998 135.387 140.798 135.003 140.668 134.627C140.53 134.251 140.461 133.867 140.461 133.476C140.461 132.739 140.672 132.156 141.094 131.726C141.516 131.296 142.099 131.081 142.844 131.081H145.618C145.726 131.081 145.807 131.058 145.86 131.012C145.906 130.966 145.933 130.893 145.941 130.793H146.563C146.57 130.878 146.578 130.951 146.586 131.012C146.593 131.074 146.593 131.12 146.586 131.15C146.578 131.342 146.516 131.488 146.401 131.588C146.286 131.688 146.164 131.741 146.033 131.749L145.595 131.761C145.941 132.029 146.21 132.378 146.401 132.808C146.586 133.238 146.678 133.676 146.678 134.121C146.678 134.505 146.597 134.854 146.436 135.168C146.267 135.475 146.044 135.717 145.768 135.894C145.484 136.063 145.173 136.147 144.836 136.147ZM145.296 132.129C145.189 132.044 145.085 131.979 144.985 131.933C144.886 131.887 144.797 131.864 144.72 131.864H143.845C143.746 132.125 143.669 132.398 143.615 132.682C143.562 132.958 143.535 133.238 143.535 133.522C143.535 134.082 143.646 134.535 143.868 134.881C144.091 135.226 144.394 135.399 144.778 135.399C145.001 135.399 145.212 135.341 145.411 135.226C145.603 135.111 145.764 134.942 145.895 134.719C146.017 134.497 146.079 134.236 146.079 133.937C146.079 133.561 146.006 133.211 145.86 132.889C145.714 132.559 145.526 132.306 145.296 132.129ZM146.563 124.347V125.13H143.212C142.506 125.13 141.992 125.234 141.669 125.441C141.339 125.648 141.174 125.974 141.174 126.419C141.174 126.726 141.251 127.03 141.405 127.329C141.55 127.628 141.754 127.893 142.015 128.123C142.268 128.346 142.56 128.507 142.89 128.607H146.563V129.39H140.564V128.676H141.923C141.631 128.515 141.378 128.304 141.163 128.043C140.94 127.782 140.767 127.486 140.645 127.156C140.522 126.826 140.461 126.485 140.461 126.132C140.461 125.801 140.522 125.521 140.645 125.291C140.767 125.061 140.944 124.877 141.174 124.738C141.397 124.6 141.669 124.5 141.992 124.439C142.307 124.378 142.66 124.347 143.051 124.347H146.563ZM144.836 123.161C144.46 123.161 144.137 123.054 143.868 122.839C143.592 122.624 143.381 122.328 143.235 121.952C143.082 121.568 143.005 121.127 143.005 120.628C143.005 120.337 143.028 120.033 143.074 119.718C143.12 119.404 143.189 119.124 143.281 118.878H142.775C142.268 118.878 141.865 119.028 141.566 119.327C141.266 119.626 141.117 120.041 141.117 120.57C141.117 120.893 141.178 121.212 141.301 121.526C141.416 121.833 141.589 122.156 141.819 122.493L141.266 122.792C140.998 122.401 140.798 122.017 140.668 121.641C140.53 121.265 140.461 120.881 140.461 120.49C140.461 119.753 140.672 119.17 141.094 118.74C141.516 118.31 142.099 118.095 142.844 118.095H145.618C145.726 118.095 145.807 118.072 145.86 118.026C145.906 117.98 145.933 117.907 145.941 117.807H146.563C146.57 117.892 146.578 117.965 146.586 118.026C146.593 118.087 146.593 118.134 146.586 118.164C146.578 118.356 146.516 118.502 146.401 118.602C146.286 118.702 146.164 118.755 146.033 118.763L145.595 118.774C145.941 119.043 146.21 119.392 146.401 119.822C146.586 120.252 146.678 120.689 146.678 121.135C146.678 121.518 146.597 121.868 146.436 122.182C146.267 122.489 146.044 122.731 145.768 122.908C145.484 123.077 145.173 123.161 144.836 123.161ZM145.296 119.143C145.189 119.059 145.085 118.993 144.985 118.947C144.886 118.901 144.797 118.878 144.72 118.878H143.845C143.746 119.139 143.669 119.412 143.615 119.695C143.562 119.972 143.535 120.252 143.535 120.536C143.535 121.096 143.646 121.549 143.868 121.894C144.091 122.24 144.394 122.413 144.778 122.413C145.001 122.413 145.212 122.355 145.411 122.24C145.603 122.125 145.764 121.956 145.895 121.733C146.017 121.511 146.079 121.25 146.079 120.95C146.079 120.574 146.006 120.225 145.86 119.903C145.714 119.573 145.526 119.319 145.296 119.143ZM146.643 113.997C146.643 114.404 146.559 114.78 146.39 115.126C146.221 115.471 145.994 115.77 145.711 116.024C145.419 116.269 145.089 116.461 144.72 116.599C144.352 116.737 143.972 116.807 143.581 116.807C143.159 116.807 142.763 116.741 142.395 116.611C142.019 116.473 141.685 116.281 141.393 116.035C141.101 115.782 140.875 115.487 140.714 115.149C140.545 114.811 140.461 114.435 140.461 114.02C140.461 113.506 140.591 113.061 140.852 112.685C141.113 112.301 141.435 111.979 141.819 111.718H140.564V111.015H146.586C147.138 111.015 147.603 111.15 147.979 111.418C148.363 111.679 148.65 112.036 148.842 112.489C149.034 112.934 149.13 113.422 149.13 113.951C149.13 114.635 149.007 115.187 148.762 115.609C148.516 116.031 148.186 116.377 147.771 116.645L147.391 116.162C147.767 115.924 148.048 115.609 148.232 115.218C148.416 114.819 148.508 114.396 148.508 113.951C148.508 113.56 148.435 113.203 148.289 112.881C148.151 112.551 147.94 112.289 147.656 112.098C147.372 111.898 147.015 111.798 146.586 111.798H145.4C145.776 112.029 146.079 112.343 146.309 112.742C146.532 113.141 146.643 113.56 146.643 113.997ZM145.987 113.779C145.987 113.541 145.945 113.314 145.86 113.099C145.776 112.877 145.664 112.673 145.526 112.489C145.381 112.305 145.219 112.151 145.043 112.029C144.866 111.906 144.686 111.829 144.502 111.798H142.648C142.356 111.913 142.099 112.079 141.877 112.293C141.646 112.508 141.47 112.754 141.347 113.03C141.216 113.299 141.151 113.579 141.151 113.871C141.151 114.209 141.224 114.512 141.37 114.78C141.508 115.041 141.696 115.264 141.934 115.448C142.164 115.625 142.425 115.763 142.717 115.862C143.009 115.962 143.3 116.012 143.592 116.012C143.914 116.012 144.221 115.955 144.513 115.839C144.797 115.724 145.054 115.567 145.285 115.367C145.507 115.16 145.68 114.922 145.803 114.654C145.925 114.377 145.987 114.086 145.987 113.779ZM146.678 106.696C146.678 107.126 146.597 107.525 146.436 107.893C146.267 108.262 146.04 108.581 145.757 108.849C145.465 109.118 145.131 109.329 144.755 109.482C144.379 109.628 143.976 109.701 143.546 109.701C142.986 109.701 142.471 109.574 142.003 109.321C141.535 109.06 141.163 108.703 140.887 108.25C140.603 107.798 140.461 107.283 140.461 106.708C140.461 106.117 140.603 105.602 140.887 105.165C141.17 104.72 141.547 104.37 142.015 104.117C142.475 103.864 142.982 103.737 143.535 103.737C143.596 103.737 143.657 103.737 143.719 103.737C143.772 103.737 143.815 103.741 143.845 103.749V108.884C144.275 108.845 144.659 108.726 144.997 108.527C145.327 108.319 145.591 108.055 145.791 107.732C145.983 107.402 146.079 107.045 146.079 106.662C146.079 106.27 145.979 105.902 145.78 105.556C145.58 105.203 145.319 104.958 144.997 104.819L145.181 104.14C145.465 104.263 145.722 104.451 145.952 104.704C146.183 104.958 146.363 105.257 146.493 105.602C146.616 105.94 146.678 106.305 146.678 106.696ZM143.281 108.907V104.474C142.844 104.505 142.46 104.624 142.13 104.831C141.8 105.031 141.543 105.295 141.359 105.625C141.167 105.948 141.071 106.305 141.071 106.696C141.071 107.088 141.167 107.444 141.359 107.767C141.543 108.089 141.804 108.354 142.141 108.561C142.471 108.761 142.851 108.876 143.281 108.907ZM146.563 93.6066V94.3895H143.212C142.514 94.3895 141.999 94.501 141.669 94.7234C141.339 94.9461 141.174 95.276 141.174 95.7135C141.174 96.1665 141.336 96.5734 141.658 96.9339C141.98 97.2872 142.395 97.5365 142.901 97.6823H146.563V98.4651H143.212C142.506 98.4651 141.992 98.5727 141.669 98.7875C141.339 99.0026 141.174 99.3326 141.174 99.7776C141.174 100.223 141.332 100.626 141.646 100.987C141.961 101.347 142.376 101.601 142.89 101.746H146.563V102.529H140.564V101.815H141.923C141.455 101.562 141.094 101.24 140.84 100.848C140.587 100.449 140.461 100.008 140.461 99.5244C140.461 99.0257 140.603 98.6227 140.887 98.3155C141.17 98.0086 141.543 97.8204 142.003 97.7513C141.497 97.475 141.113 97.1451 140.852 96.7612C140.591 96.3697 140.461 95.9286 140.461 95.4372C140.461 95.0997 140.522 94.8155 140.645 94.5852C140.767 94.3474 140.944 94.1592 141.174 94.021C141.397 93.8753 141.669 93.7717 141.992 93.7102C142.307 93.6411 142.66 93.6066 143.051 93.6066H146.563ZM146.678 89.3589C146.678 89.7888 146.597 90.1878 146.436 90.5562C146.267 90.9247 146.04 91.2434 145.757 91.5119C145.465 91.7806 145.131 91.9918 144.755 92.1451C144.379 92.2911 143.976 92.3638 143.546 92.3638C142.986 92.3638 142.471 92.2372 142.003 91.9839C141.535 91.723 141.163 91.3661 140.887 90.9132C140.603 90.4605 140.461 89.9461 140.461 89.3704C140.461 88.7796 140.603 88.2651 140.887 87.8276C141.17 87.3826 141.547 87.0332 142.015 86.7799C142.475 86.5267 142.982 86.4 143.535 86.4C143.596 86.4 143.657 86.4 143.719 86.4C143.772 86.4 143.815 86.404 143.845 86.4115V91.5464C144.275 91.5082 144.659 91.3892 144.997 91.1895C145.327 90.9823 145.591 90.7174 145.791 90.3951C145.983 90.0651 146.079 89.7082 146.079 89.3244C146.079 88.9329 145.979 88.5645 145.78 88.2191C145.58 87.8661 145.319 87.6204 144.997 87.4823L145.181 86.803C145.465 86.926 145.722 87.1138 145.952 87.3671C146.183 87.6204 146.363 87.9198 146.493 88.2651C146.616 88.603 146.678 88.9674 146.678 89.3589ZM143.281 91.5694V87.1368C142.844 87.1678 142.46 87.2865 142.13 87.4937C141.8 87.6934 141.543 87.9582 141.359 88.2882C141.167 88.6105 141.071 88.9674 141.071 89.3589C141.071 89.7503 141.167 90.1072 141.359 90.4296C141.543 90.752 141.804 91.0168 142.141 91.224C142.471 91.4237 142.851 91.5388 143.281 91.5694ZM146.563 80.1494V80.9322H143.212C142.506 80.9322 141.992 81.0359 141.669 81.2431C141.339 81.4503 141.174 81.7766 141.174 82.2217C141.174 82.5289 141.251 82.8319 141.405 83.1313C141.55 83.4306 141.754 83.6954 142.015 83.9257C142.268 84.1484 142.56 84.3095 142.89 84.4092H146.563V85.1921H140.564V84.4783H141.923C141.631 84.3171 141.378 84.1063 141.163 83.8451C140.94 83.5842 140.767 83.2888 140.645 82.9586C140.522 82.6286 140.461 82.2872 140.461 81.9339C140.461 81.6039 140.522 81.3237 140.645 81.0934C140.767 80.8632 140.944 80.6789 141.174 80.5408C141.397 80.4026 141.669 80.303 141.992 80.2415C142.307 80.1803 142.66 80.1494 143.051 80.1494H146.563ZM146.275 75.6579C146.298 75.7194 146.34 75.8151 146.401 75.9457C146.463 76.0763 146.516 76.2336 146.563 76.4178C146.609 76.602 146.632 76.8017 146.632 77.0165C146.632 77.2392 146.589 77.45 146.505 77.6497C146.42 77.8414 146.294 77.9951 146.125 78.1102C145.948 78.2253 145.734 78.2829 145.48 78.2829H141.186V79.1119H140.564V78.2829H138.538V77.5H140.564V76.1184H141.186V77.5H145.262C145.476 77.4845 145.638 77.4079 145.745 77.2697C145.853 77.124 145.906 76.9589 145.906 76.7747C145.906 76.5599 145.872 76.3642 145.803 76.1875C145.726 76.0109 145.672 75.9036 145.641 75.8651L146.275 75.6579Z" fill="#2D2D2D"/>
<path d="M257.9 204.316C257.9 204.961 257.784 205.507 257.554 205.951C257.324 206.395 257.017 206.75 256.633 207.01C256.242 207.27 255.8 207.464 255.309 207.586C254.818 207.701 254.311 207.76 253.789 207.76H249.668V206.964H253.789C254.211 206.964 254.626 206.921 255.033 206.839C255.44 206.747 255.804 206.599 256.127 206.398C256.449 206.201 256.706 205.931 256.898 205.592C257.082 205.257 257.174 204.836 257.174 204.329C257.174 203.806 257.078 203.375 256.886 203.04C256.687 202.691 256.426 202.425 256.104 202.234C255.781 202.033 255.42 201.892 255.021 201.806C254.614 201.721 254.204 201.678 253.789 201.678H249.668V200.872H253.789C254.334 200.872 254.856 200.935 255.355 201.06C255.854 201.181 256.292 201.382 256.668 201.658C257.044 201.925 257.343 202.28 257.566 202.717C257.788 203.155 257.9 203.688 257.9 204.316ZM257.957 197.29C257.957 197.783 257.877 198.24 257.715 198.662C257.554 199.083 257.308 199.448 256.979 199.754L256.426 199.431C256.741 199.096 256.971 198.757 257.117 198.418C257.255 198.073 257.324 197.711 257.324 197.326C257.324 196.859 257.232 196.477 257.048 196.185C256.856 195.895 256.583 195.747 256.23 195.747C255.992 195.747 255.812 195.823 255.689 195.967C255.558 196.106 255.455 196.31 255.378 196.576C255.294 196.839 255.206 197.152 255.113 197.52C254.998 197.935 254.879 198.287 254.756 198.569C254.626 198.846 254.465 199.056 254.273 199.201C254.073 199.339 253.816 199.408 253.502 199.408C253.11 199.408 252.788 199.313 252.534 199.122C252.274 198.921 252.078 198.655 251.947 198.316C251.809 197.971 251.74 197.586 251.74 197.165C251.74 196.704 251.813 196.296 251.959 195.944C252.105 195.592 252.308 195.303 252.569 195.079L253.099 195.461C252.853 195.675 252.673 195.931 252.558 196.231C252.435 196.523 252.373 196.849 252.373 197.211C252.373 197.458 252.408 197.691 252.477 197.912C252.538 198.135 252.646 198.319 252.799 198.464C252.945 198.602 253.149 198.671 253.409 198.671C253.624 198.671 253.793 198.619 253.916 198.51C254.031 198.405 254.131 198.244 254.215 198.027C254.292 197.813 254.377 197.55 254.469 197.234C254.591 196.78 254.718 196.385 254.849 196.046C254.971 195.711 255.132 195.448 255.332 195.264C255.532 195.079 255.812 194.987 256.173 194.987C256.733 194.987 257.17 195.201 257.485 195.622C257.8 196.043 257.957 196.599 257.957 197.29ZM257.957 191.102C257.957 191.533 257.877 191.931 257.715 192.3C257.547 192.668 257.32 192.987 257.036 193.257C256.744 193.527 256.41 193.737 256.034 193.889C255.658 194.037 255.256 194.109 254.826 194.109C254.265 194.109 253.751 193.981 253.283 193.727C252.815 193.467 252.442 193.112 252.166 192.658C251.882 192.204 251.74 191.691 251.74 191.115C251.74 190.523 251.882 190.01 252.166 189.573C252.45 189.129 252.826 188.777 253.294 188.523C253.755 188.27 254.261 188.145 254.814 188.145C254.876 188.145 254.937 188.145 254.998 188.145C255.052 188.145 255.094 188.148 255.125 188.155V193.29C255.555 193.254 255.938 193.135 256.276 192.935C256.606 192.727 256.871 192.461 257.071 192.138C257.262 191.81 257.358 191.454 257.358 191.069C257.358 190.678 257.259 190.31 257.059 189.964C256.859 189.612 256.599 189.365 256.276 189.227L256.46 188.546C256.744 188.671 257.002 188.859 257.232 189.112C257.462 189.365 257.642 189.665 257.773 190.01C257.896 190.349 257.957 190.711 257.957 191.102ZM254.561 193.313V188.882C254.123 188.912 253.739 189.03 253.409 189.237C253.08 189.438 252.822 189.704 252.638 190.033C252.446 190.356 252.35 190.711 252.35 191.102C252.35 191.494 252.446 191.852 252.638 192.175C252.822 192.497 253.083 192.76 253.421 192.967C253.751 193.168 254.131 193.283 254.561 193.313ZM252.534 183.944C252.55 184.464 252.696 184.925 252.972 185.326C253.248 185.717 253.628 185.994 254.112 186.155H257.842V186.938H251.844V186.201H253.283C252.861 185.994 252.519 185.721 252.258 185.382C251.997 185.037 251.851 184.671 251.821 184.29C251.813 184.211 251.809 184.148 251.809 184.092C251.809 184.033 251.813 183.981 251.821 183.944H252.534ZM257.128 174.583H257.842V180.076H249.668V174.687H250.382V179.27H253.329V175.274H254.008V179.27H257.128V174.583ZM251.844 173.036L254.192 171.274L254.365 171.182L254.192 171.09L251.844 169.34V168.454L254.86 170.733L257.842 168.454V169.34L255.505 171.09L255.344 171.182L255.505 171.274L257.842 173.024V173.911L254.86 171.643L251.844 173.911V173.036ZM257.957 164.356C257.957 164.855 257.827 165.304 257.566 165.703C257.305 166.095 256.982 166.406 256.599 166.636H260.294V167.419H251.844V166.716H253.007C252.631 166.478 252.327 166.16 252.097 165.761C251.859 165.362 251.74 164.936 251.74 164.483C251.74 164.068 251.828 163.688 252.005 163.343C252.174 162.998 252.404 162.698 252.696 162.445C252.987 162.192 253.321 161.996 253.697 161.858C254.066 161.712 254.45 161.639 254.849 161.639C255.409 161.639 255.927 161.754 256.403 161.985C256.871 162.207 257.247 162.522 257.531 162.929C257.815 163.335 257.957 163.811 257.957 164.356ZM257.266 164.575C257.266 164.245 257.201 163.949 257.071 163.689C256.933 163.427 256.748 163.205 256.518 163.021C256.288 162.829 256.031 162.683 255.747 162.583C255.455 162.483 255.156 162.434 254.849 162.434C254.526 162.434 254.219 162.491 253.928 162.606C253.636 162.714 253.379 162.871 253.156 163.078C252.933 163.286 252.757 163.523 252.627 163.792C252.496 164.061 252.431 164.352 252.431 164.667C252.431 164.866 252.469 165.074 252.546 165.289C252.623 165.504 252.734 165.711 252.88 165.911C253.018 166.102 253.175 166.263 253.352 166.394C253.529 166.524 253.716 166.605 253.916 166.636H255.758C256.042 166.513 256.299 166.348 256.53 166.141C256.752 165.934 256.933 165.695 257.071 165.427C257.201 165.151 257.266 164.866 257.266 164.575ZM257.957 157.722C257.957 158.152 257.877 158.551 257.715 158.92C257.547 159.288 257.32 159.607 257.036 159.875C256.744 160.144 256.41 160.355 256.034 160.509C255.658 160.654 255.256 160.727 254.826 160.727C254.265 160.727 253.751 160.601 253.283 160.347C252.815 160.087 252.442 159.73 252.166 159.277C251.882 158.824 251.74 158.31 251.74 157.734C251.74 157.143 251.882 156.629 252.166 156.191C252.45 155.746 252.826 155.397 253.294 155.143C253.755 154.89 254.261 154.763 254.814 154.763C254.876 154.763 254.937 154.763 254.998 154.763C255.052 154.763 255.094 154.767 255.125 154.775V159.91C255.555 159.871 255.938 159.753 256.276 159.553C256.606 159.346 256.871 159.081 257.071 158.759C257.262 158.429 257.358 158.072 257.358 157.688C257.358 157.296 257.259 156.928 257.059 156.583C256.859 156.23 256.599 155.984 256.276 155.846L256.46 155.166C256.744 155.289 257.002 155.477 257.232 155.731C257.462 155.984 257.642 156.283 257.773 156.629C257.896 156.966 257.957 157.331 257.957 157.722ZM254.561 159.933V155.5C254.123 155.531 253.739 155.65 253.409 155.857C253.08 156.057 252.822 156.322 252.638 156.652C252.446 156.974 252.35 157.331 252.35 157.722C252.35 158.114 252.446 158.471 252.638 158.793C252.822 159.115 253.083 159.38 253.421 159.588C253.751 159.787 254.131 159.902 254.561 159.933ZM252.534 150.562C252.55 151.084 252.696 151.545 252.972 151.944C253.248 152.335 253.628 152.612 254.112 152.773H257.842V153.556H251.844V152.819H253.283C252.861 152.612 252.519 152.339 252.258 152.001C251.997 151.656 251.851 151.291 251.821 150.908C251.813 150.831 251.809 150.765 251.809 150.712C251.809 150.65 251.813 150.601 251.821 150.562H252.534ZM257.842 149.519H251.844V148.737H257.842V149.519ZM250.589 149.519H249.437V148.737H250.589V149.519ZM257.957 144.421C257.957 144.851 257.877 145.25 257.715 145.619C257.547 145.987 257.32 146.306 257.036 146.574C256.744 146.843 256.41 147.054 256.034 147.208C255.658 147.354 255.256 147.426 254.826 147.426C254.265 147.426 253.751 147.3 253.283 147.046C252.815 146.786 252.442 146.429 252.166 145.976C251.882 145.523 251.74 145.009 251.74 144.433C251.74 143.842 251.882 143.328 252.166 142.89C252.45 142.445 252.826 142.096 253.294 141.842C253.755 141.589 254.261 141.463 254.814 141.463C254.876 141.463 254.937 141.463 254.998 141.463C255.052 141.463 255.094 141.466 255.125 141.474V146.609C255.555 146.571 255.938 146.452 256.276 146.252C256.606 146.045 256.871 145.78 257.071 145.458C257.262 145.128 257.358 144.771 257.358 144.387C257.358 143.995 257.259 143.627 257.059 143.282C256.859 142.929 256.599 142.683 256.276 142.545L256.46 141.865C256.744 141.989 257.002 142.176 257.232 142.43C257.462 142.683 257.642 142.982 257.773 143.328C257.896 143.665 257.957 144.03 257.957 144.421ZM254.561 146.632V142.199C254.123 142.23 253.739 142.349 253.409 142.556C253.08 142.756 252.822 143.021 252.638 143.351C252.446 143.673 252.35 144.03 252.35 144.421C252.35 144.813 252.446 145.17 252.638 145.492C252.822 145.814 253.083 146.079 253.421 146.287C253.751 146.486 254.131 146.601 254.561 146.632ZM257.842 135.212V135.995H254.492C253.785 135.995 253.271 136.098 252.949 136.306C252.619 136.513 252.454 136.839 252.454 137.284C252.454 137.591 252.531 137.894 252.684 138.194C252.83 138.493 253.033 138.758 253.294 138.988C253.548 139.211 253.839 139.372 254.169 139.472H257.842V140.255H251.844V139.541H253.202C252.91 139.38 252.657 139.169 252.442 138.908C252.22 138.647 252.047 138.351 251.924 138.021C251.802 137.691 251.74 137.35 251.74 136.996C251.74 136.666 251.802 136.386 251.924 136.156C252.047 135.926 252.224 135.741 252.454 135.603C252.677 135.465 252.949 135.365 253.271 135.304C253.586 135.243 253.939 135.212 254.331 135.212H257.842ZM257.957 130.94C257.957 131.378 257.877 131.781 257.715 132.149C257.547 132.51 257.316 132.829 257.025 133.105C256.733 133.374 256.399 133.585 256.023 133.738C255.647 133.884 255.248 133.957 254.826 133.957C254.257 133.957 253.739 133.83 253.271 133.577C252.803 133.324 252.431 132.971 252.155 132.518C251.878 132.065 251.74 131.543 251.74 130.952C251.74 130.392 251.871 129.897 252.132 129.467C252.385 129.037 252.73 128.718 253.168 128.511L253.409 129.271C253.103 129.44 252.864 129.678 252.696 129.985C252.519 130.284 252.431 130.618 252.431 130.987C252.431 131.386 252.534 131.75 252.742 132.08C252.949 132.411 253.233 132.675 253.594 132.875C253.955 133.067 254.365 133.163 254.826 133.163C255.279 133.163 255.689 133.063 256.057 132.863C256.426 132.664 256.721 132.399 256.944 132.069C257.159 131.739 257.266 131.374 257.266 130.975C257.266 130.714 257.22 130.465 257.128 130.227C257.036 129.981 256.913 129.77 256.76 129.593C256.599 129.409 256.426 129.287 256.242 129.225L256.472 128.454C256.756 128.561 257.013 128.741 257.243 128.995C257.466 129.24 257.642 129.532 257.773 129.87C257.896 130.2 257.957 130.557 257.957 130.94ZM257.957 124.689C257.957 125.119 257.877 125.518 257.715 125.887C257.547 126.255 257.32 126.574 257.036 126.842C256.744 127.111 256.41 127.322 256.034 127.476C255.658 127.621 255.256 127.694 254.826 127.694C254.265 127.694 253.751 127.568 253.283 127.314C252.815 127.054 252.442 126.697 252.166 126.244C251.882 125.791 251.74 125.277 251.74 124.701C251.74 124.11 251.882 123.596 252.166 123.158C252.45 122.713 252.826 122.364 253.294 122.111C253.755 121.857 254.261 121.731 254.814 121.731C254.876 121.731 254.937 121.731 254.998 121.731C255.052 121.731 255.094 121.735 255.125 121.742V126.877C255.555 126.838 255.938 126.72 256.276 126.52C256.606 126.313 256.871 126.048 257.071 125.726C257.262 125.396 257.358 125.039 257.358 124.655C257.358 124.263 257.259 123.895 257.059 123.55C256.859 123.197 256.599 122.951 256.276 122.813L256.46 122.134C256.744 122.256 257.002 122.444 257.232 122.698C257.462 122.951 257.642 123.25 257.773 123.596C257.896 123.934 257.957 124.298 257.957 124.689ZM254.561 126.9V122.467C254.123 122.498 253.739 122.617 253.409 122.824C253.08 123.024 252.822 123.289 252.638 123.619C252.446 123.941 252.35 124.298 252.35 124.689C252.35 125.081 252.446 125.438 252.638 125.76C252.822 126.083 253.083 126.347 253.421 126.555C253.751 126.754 254.131 126.869 254.561 126.9ZM257.842 117.427H249.668V114.652C249.668 113.785 249.852 113.064 250.22 112.488C250.581 111.905 251.072 111.467 251.694 111.175C252.308 110.884 252.991 110.738 253.743 110.738C254.572 110.738 255.294 110.899 255.908 111.221C256.522 111.536 256.998 111.989 257.335 112.58C257.673 113.164 257.842 113.854 257.842 114.652V117.427ZM253.743 111.544C253.091 111.544 252.511 111.667 252.005 111.912C251.498 112.15 251.103 112.499 250.819 112.96C250.527 113.42 250.382 113.985 250.382 114.652V116.621H257.128V114.652C257.128 113.977 256.979 113.409 256.679 112.948C256.38 112.488 255.977 112.139 255.47 111.901C254.956 111.663 254.381 111.544 253.743 111.544ZM257.957 106.768C257.957 107.197 257.877 107.597 257.715 107.965C257.547 108.334 257.32 108.652 257.036 108.921C256.744 109.189 256.41 109.4 256.034 109.554C255.658 109.7 255.256 109.773 254.826 109.773C254.265 109.773 253.751 109.646 253.283 109.393C252.815 109.132 252.442 108.775 252.166 108.322C251.882 107.869 251.74 107.355 251.74 106.779C251.74 106.188 251.882 105.674 252.166 105.237C252.45 104.791 252.826 104.442 253.294 104.189C253.755 103.936 254.261 103.809 254.814 103.809C254.876 103.809 254.937 103.809 254.998 103.809C255.052 103.809 255.094 103.813 255.125 103.82V108.955C255.555 108.917 255.938 108.798 256.276 108.598C256.606 108.391 256.871 108.126 257.071 107.804C257.262 107.474 257.358 107.117 257.358 106.733C257.358 106.342 257.259 105.973 257.059 105.628C256.859 105.275 256.599 105.029 256.276 104.891L256.46 104.212C256.744 104.335 257.002 104.523 257.232 104.776C257.462 105.029 257.642 105.329 257.773 105.674C257.896 106.012 257.957 106.376 257.957 106.768ZM254.561 108.978V104.546C254.123 104.576 253.739 104.695 253.409 104.903C253.08 105.102 252.822 105.367 252.638 105.697C252.446 106.019 252.35 106.376 252.35 106.768C252.35 107.159 252.446 107.516 252.638 107.839C252.822 108.161 253.083 108.426 253.421 108.633C253.751 108.832 254.131 108.947 254.561 108.978ZM257.957 100.632C257.957 101.123 257.877 101.58 257.715 102.002C257.554 102.424 257.308 102.789 256.979 103.096L256.426 102.774C256.741 102.436 256.971 102.098 257.117 101.761C257.255 101.415 257.324 101.05 257.324 100.667C257.324 100.198 257.232 99.8184 257.048 99.527C256.856 99.2352 256.583 99.0895 256.23 99.0895C255.992 99.0895 255.812 99.1622 255.689 99.3082C255.558 99.4464 255.455 99.6497 255.378 99.9184C255.294 100.179 255.206 100.494 255.113 100.863C254.998 101.277 254.879 101.626 254.756 101.91C254.626 102.187 254.465 102.397 254.273 102.543C254.073 102.682 253.816 102.751 253.502 102.751C253.11 102.751 252.788 102.655 252.534 102.463C252.274 102.263 252.078 101.994 251.947 101.657C251.809 101.312 251.74 100.928 251.74 100.506C251.74 100.045 251.813 99.6382 251.959 99.2852C252.105 98.9319 252.308 98.6441 252.569 98.4217L253.099 98.8017C252.853 99.0165 252.673 99.2737 252.558 99.573C252.435 99.8645 252.373 100.191 252.373 100.552C252.373 100.797 252.408 101.031 252.477 101.254C252.538 101.476 252.646 101.661 252.799 101.807C252.945 101.945 253.149 102.014 253.409 102.014C253.624 102.014 253.793 101.96 253.916 101.853C254.031 101.745 254.131 101.584 254.215 101.369C254.292 101.154 254.377 100.889 254.469 100.575C254.591 100.122 254.718 99.7263 254.849 99.3888C254.971 99.051 255.132 98.7901 255.332 98.6059C255.532 98.4217 255.812 98.3296 256.173 98.3296C256.733 98.3296 257.17 98.5405 257.485 98.9628C257.8 99.3849 257.957 99.9415 257.957 100.632ZM257.842 97.0355H251.844V96.2526H257.842V97.0355ZM250.589 97.0355H249.437V96.2526H250.589V97.0355ZM257.923 92.1221C257.923 92.5286 257.838 92.905 257.669 93.2503C257.501 93.5957 257.274 93.8951 256.99 94.1484C256.698 94.3938 256.368 94.5859 256 94.724C255.632 94.8622 255.252 94.9313 254.86 94.9313C254.438 94.9313 254.043 94.8658 253.674 94.7355C253.298 94.5974 252.964 94.4053 252.673 94.1599C252.381 93.9066 252.155 93.6109 251.993 93.2734C251.825 92.9355 251.74 92.5596 251.74 92.1451C251.74 91.6306 251.871 91.1855 252.132 90.8095C252.392 90.4257 252.715 90.1033 253.099 89.8424H251.844V89.1401H257.865C258.418 89.1401 258.882 89.2744 259.258 89.5431C259.642 89.804 259.93 90.1609 260.122 90.6138C260.313 91.0589 260.409 91.5464 260.409 92.076C260.409 92.7589 260.287 93.3115 260.041 93.7339C259.795 94.1559 259.465 94.5013 259.051 94.7701L258.671 94.2865C259.047 94.0484 259.327 93.7339 259.511 93.3425C259.696 92.9431 259.788 92.5211 259.788 92.076C259.788 91.6846 259.715 91.3276 259.569 91.0053C259.431 90.675 259.22 90.4142 258.936 90.2224C258.652 90.0227 258.295 89.923 257.865 89.923H256.679C257.055 90.1533 257.358 90.4678 257.589 90.8671C257.811 91.2661 257.923 91.6846 257.923 92.1221ZM257.266 91.9033C257.266 91.6652 257.224 91.4388 257.14 91.224C257.055 91.0013 256.944 90.7981 256.806 90.6138C256.66 90.4296 256.499 90.276 256.322 90.1533C256.146 90.0303 255.965 89.9536 255.781 89.923H253.928C253.636 90.0382 253.379 90.203 253.156 90.4181C252.926 90.6329 252.749 90.8786 252.627 91.155C252.496 91.4234 252.431 91.7036 252.431 91.9954C252.431 92.3329 252.504 92.6362 252.65 92.9049C252.788 93.1658 252.976 93.3885 253.214 93.5727C253.444 93.749 253.705 93.8872 253.997 93.9872C254.288 94.0869 254.58 94.1369 254.872 94.1369C255.194 94.1369 255.501 94.0793 255.793 93.9641C256.077 93.849 256.334 93.6915 256.564 93.4921C256.787 93.2849 256.959 93.0467 257.082 92.7783C257.205 92.502 257.266 92.2102 257.266 91.9033ZM257.842 82.3684V83.1513H254.492C253.785 83.1513 253.271 83.255 252.949 83.4622C252.619 83.6694 252.454 83.9957 252.454 84.4408C252.454 84.7477 252.531 85.051 252.684 85.3503C252.83 85.6497 253.033 85.9145 253.294 86.1447C253.548 86.3674 253.839 86.5286 254.169 86.6283H257.842V87.4112H251.844V86.6974H253.202C252.91 86.5362 252.657 86.325 252.442 86.0642C252.22 85.8033 252.047 85.5076 251.924 85.1776C251.802 84.8477 251.74 84.5059 251.74 84.153C251.74 83.823 251.802 83.5428 251.924 83.3125C252.047 83.0822 252.224 82.898 252.454 82.7599C252.677 82.6217 252.949 82.522 253.271 82.4605C253.586 82.399 253.939 82.3684 254.331 82.3684H257.842Z" fill="#2D2D2D"/>
</svg>